<?xml version="1.0" encoding="UTF-8" standalone="no"?>
<svg
   xmlns:dc="http://purl.org/dc/elements/1.1/"
   xmlns:cc="http://creativecommons.org/ns#"
   xmlns:rdf="http://www.w3.org/1999/02/22-rdf-syntax-ns#"
   xmlns:svg="http://www.w3.org/2000/svg"
   xmlns="http://www.w3.org/2000/svg"
   xmlns:sodipodi="http://sodipodi.sourceforge.net/DTD/sodipodi-0.dtd"
   xmlns:inkscape="http://www.inkscape.org/namespaces/inkscape"
   id="Layer_1"
   data-name="Layer 1"
   width="168.77"
   height="83.38"
   viewBox="0 0 168.77 83.38"
   version="1.1"
   sodipodi:docname="stick.svg"
   inkscape:version="1.0 (4035a4fb49, 2020-05-01)">
  <metadata
     id="metadata48">
    <rdf:RDF>
      <cc:Work
         rdf:about="">
        <dc:format>image/svg+xml</dc:format>
        <dc:type
           rdf:resource="http://purl.org/dc/dcmitype/StillImage" />
      </cc:Work>
    </rdf:RDF>
  </metadata>
  <sodipodi:namedview
     inkscape:document-rotation="0"
     pagecolor="#ffffff"
     bordercolor="#666666"
     borderopacity="1"
     objecttolerance="10"
     gridtolerance="10"
     guidetolerance="10"
     inkscape:pageopacity="0"
     inkscape:pageshadow="2"
     inkscape:window-width="1920"
     inkscape:window-height="1057"
     id="namedview46"
     showgrid="false"
     inkscape:zoom="5.7986358"
     inkscape:cx="55.904109"
     inkscape:cy="23.1279"
     inkscape:window-x="-8"
     inkscape:window-y="-8"
     inkscape:window-maximized="1"
     inkscape:current-layer="layer1" />
  <defs
     id="defs4">
    <style
       id="style2">
      .cls-1 {
        fill: #1a1a1a;
      }

      .cls-2 {
        fill: #404040;
      }

      .cls-3 {
        fill: #262626;
      }

      .cls-4 {
        opacity: 0.06;
      }

      .cls-5 {
        fill: #fff;
      }

      .cls-6 {
        fill: #212121;
      }

      .cls-7 {
        fill: #e5e5e5;
      }

      .cls-8 {
        fill: #bfbfbf;
      }

      .cls-9 {
        fill: #d9d9d9;
      }

      .cls-10 {
        fill: #dedede;
      }
    </style>
  </defs>
  <g
     inkscape:groupmode="layer"
     id="layer1"
     inkscape:label="rond"
     style="display:inline">
    <path
       id="path12-6"
       d="M 127.07,2 A 39.69,39.69 0 1 1 87.389999,41.7 39.75,39.75 0 0 1 127.07,2 m 0,-2 A 41.69,41.69 0 1 0 168.77,41.7 41.69,41.69 0 0 0 127.07,0 Z"
       class="cls-3"
       style="fill:#bababa;fill-opacity:1;stroke:#bababa;stroke-opacity:1" />
    <path
       style="fill:#1a1a1a;fill-opacity:1;stroke:#000000;stroke-width:0.121944;stroke-linecap:round;stroke-opacity:1"
       d="M 124.50024,81.251582 C 116.3409,80.611007 109.00983,77.794516 102.61135,72.842197 100.80387,71.443231 97.362557,68.000129 95.977454,66.204846 91.343394,60.198469 88.769778,54.010185 87.71098,46.328032 87.46276,44.527058 87.503223,38.495562 87.776426,36.57254 89.36564,25.386383 95.15614,15.83919 104.31856,9.2983845 c 6.43733,-4.5954341 14.69319,-7.2280654 22.68763,-7.2346376 11.91884,-0.0098 23.43283,5.4805152 30.85047,14.7107001 4.90069,6.098193 7.75999,13.034082 8.66443,21.01753 0.1856,1.638311 0.18475,6.143748 -10e-4,7.804393 -1.10049,9.813634 -5.29485,18.29921 -12.32977,24.944304 -6.10909,5.770575 -13.65812,9.317254 -22.31201,10.482609 -1.34384,0.180963 -6.10418,0.328272 -7.37759,0.228299 z"
       id="path892" />
    <path
       style="fill:#1a1a1a;fill-opacity:1;stroke:#1a1a1a;stroke-width:0.121944;stroke-linecap:round;stroke-opacity:1"
       d="m 123.25296,81.014063 c -8.12614,-0.886706 -15.82452,-4.157598 -21.67687,-9.210081 -1.48619,-1.28307 -4.247319,-4.116564 -5.361881,-5.502412 -1.061102,-1.319375 -2.889401,-4.077055 -3.8235,-5.767104 -2.654105,-4.802021 -4.371741,-10.718803 -4.6665,-16.074796 -0.155392,-2.823581 0.02228,-7.151989 0.376298,-9.167538 1.234114,-7.026151 4.177241,-13.446219 8.622542,-18.809006 1.359622,-1.640241 4.430351,-4.610937 6.135071,-5.935219 5.23779,-4.0688826 11.2466,-6.6988607 17.85399,-7.8144663 9.23915,-1.5599567 19.00596,0.3721173 27.06607,5.354224 8.7759,5.4245463 15.0799,14.0245663 17.5727,23.9729603 0.9126,3.642046 1.15894,5.69411 1.15894,9.654147 0,3.889932 -0.26198,6.060617 -1.1602,9.612949 -2.66356,10.534064 -9.42467,19.365596 -19.00254,24.821623 -2.73304,1.556876 -6.36926,2.993252 -9.70558,3.833895 -2.62352,0.661043 -4.82751,0.973939 -7.75129,1.100439 -3.27919,0.141876 -3.75264,0.136029 -5.63725,-0.06962 z"
       id="path894" />
    <path
       style="display:inline;fill:#e5e5e5;fill-opacity:1;stroke:#e5e5e5;stroke-opacity:1"
       class="cls-3"
       d="M 41.69,2 A 39.69,39.69 0 1 1 2.0100002,41.699999 39.75,39.75 0 0 1 41.69,2 m 0,-2 A 41.69,41.69 0 1 0 83.39,41.699999 41.69,41.69 0 0 0 41.69,0 Z"
       id="path12-6-1" />
    <path
       id="path892-9"
       d="m 39.12024,81.251585 c -8.15934,-0.64058 -15.49041,-3.45707 -21.88889,-8.40939 -1.80748,-1.39897 -5.24879,-4.84207 -6.63389,-6.63735 -4.6340597,-6.00638 -7.2076798,-12.194661 -8.2664798,-19.876814 -0.24822,-1.800974 -0.20776,-7.83247 0.0654,-9.755492 C 3.9855902,25.386382 9.77609,15.839189 18.93851,9.2983842 25.37584,4.702951 33.6317,2.070319 41.62614,2.063747 c 11.91884,-0.0098 23.43283,5.4805146 30.85047,14.710699 4.90069,6.098193 7.75999,13.034082 8.66443,21.01753 0.1856,1.638311 0.18475,6.143748 -0.001,7.804393 -1.10049,9.813636 -5.29485,18.299206 -12.32977,24.944306 -6.10909,5.77057 -13.65812,9.31725 -22.31201,10.48261 -1.34384,0.18096 -6.10418,0.32827 -7.37759,0.2283 z"
       style="display:inline;fill:#dedede;fill-opacity:1;stroke:#dedede;stroke-width:0.121944;stroke-linecap:round;stroke-opacity:1" />
    <path
       id="path894-0"
       d="m 37.87296,81.014065 c -8.12614,-0.88671 -15.82452,-4.1576 -21.67687,-9.21008 -1.48619,-1.28307 -4.24732,-4.11657 -5.36188,-5.50242 -1.0611,-1.31937 -2.8893997,-4.07705 -3.8234997,-5.7671 -2.6541001,-4.80202 -4.3717401,-10.718803 -4.6665001,-16.074796 -0.15539,-2.823581 0.0223,-7.151989 0.3763,-9.167538 1.23411,-7.026151 4.1772401,-13.446219 8.6225398,-18.809006 1.35962,-1.640241 4.43035,-4.610937 6.13507,-5.935219 5.23779,-4.068881 11.2466,-6.69886 17.85399,-7.814465 9.23915,-1.559957 19.00596,0.372117 27.06607,5.3542236 8.7759,5.4245454 15.0799,14.0245654 17.5727,23.9729594 0.9126,3.642046 1.15894,5.69411 1.15894,9.654147 0,3.889932 -0.26198,6.060617 -1.1602,9.612949 -2.66356,10.534065 -9.42467,19.365595 -19.00254,24.821625 -2.73304,1.55687 -6.36926,2.99325 -9.70558,3.83389 -2.62352,0.66105 -4.82751,0.97394 -7.75129,1.10044 -3.27919,0.14188 -3.75264,0.13603 -5.63725,-0.0696 z"
       style="display:inline;fill:#dedede;fill-opacity:1;stroke:#dedede;stroke-width:0.121944;stroke-linecap:round;stroke-opacity:1" />
  </g>
</svg>
